<svg width="308" height="201" viewBox="0 0 308 201" fill="none" xmlns="http://www.w3.org/2000/svg">
<path d="M308 79.5C308 123.407 242.857 159 162.5 159C82.1426 159 17 123.407 17 79.5C17 35.5934 82.1426 0 162.5 0C242.857 0 308 35.5934 308 79.5ZM57.8283 79.5C57.8283 111.086 104.691 136.692 162.5 136.692C220.309 136.692 267.172 111.086 267.172 79.5C267.172 47.9139 220.309 22.3083 162.5 22.3083C104.691 22.3083 57.8283 47.9139 57.8283 79.5Z" fill="#C7BABA"/>
<path d="M23.1011 167.173L41.5952 105.371L116 144.5L23.1011 167.173Z" fill="#C7BABA"/>
</svg>
